<svg xmlns="http://www.w3.org/2000/svg" width="640" height="1140" viewBox="0 0 640 1140" role="img" aria-labelledby="title desc"><title id="title">Explore a career</title><desc id="desc">Context → approach → reading</desc><defs><marker id="arrow" markerWidth="8" markerHeight="8" refX="7" refY="4" orient="auto"><path d="M0 0 L8 4 L0 8" fill="none" stroke="#68d8ff"/></marker></defs><rect width="640" height="1140" rx="20" fill="#061018"/><g font-family="Arial, Helvetica, sans-serif"><text x="32" y="44" fill="#68d8ff" font-size="22">UNIVERSE PORTFOLIO</text><text x="32" y="97" fill="#e5f5fc" font-size="34">Explore a career</text><text x="32" y="140" fill="#aac4d0" font-size="25">Context → approach → reading</text><rect x="32" y="180" width="576" height="174" rx="14" fill="#0b202b" stroke="#2c6175"/><text x="56" y="224" fill="#68d8ff" font-size="30">01 / Identity</text><text x="56" y="269" fill="#e5f5fc" font-size="28">Starting point</text><text x="56" y="308" fill="#e5f5fc" font-size="28">Personal context</text><path d="M320 358 V392" fill="none" stroke="#68d8ff" stroke-width="2" marker-end="url(#arrow)"/><rect x="32" y="400" width="576" height="174" rx="14" fill="#0b202b" stroke="#2c6175"/><text x="56" y="444" fill="#68d8ff" font-size="30">02 / Cluster</text><text x="56" y="489" fill="#e5f5fc" font-size="28">Semantic region</text><text x="56" y="528" fill="#e5f5fc" font-size="28">Projects, education and experience</text><path d="M320 578 V612" fill="none" stroke="#68d8ff" stroke-width="2" marker-end="url(#arrow)"/><rect x="32" y="620" width="576" height="174" rx="14" fill="#0b202b" stroke="#2c6175"/><text x="56" y="664" fill="#68d8ff" font-size="30">03 / Focused node</text><text x="56" y="709" fill="#e5f5fc" font-size="28">Zoom and selection</text><text x="56" y="748" fill="#e5f5fc" font-size="28">Images and signals revealed</text><path d="M320 798 V832" fill="none" stroke="#68d8ff" stroke-width="2" marker-end="url(#arrow)"/><rect x="32" y="840" width="576" height="174" rx="14" fill="#0b202b" stroke="#2c6175"/><text x="56" y="884" fill="#68d8ff" font-size="30">04 / Detailed case</text><text x="56" y="929" fill="#e5f5fc" font-size="28">Narrative and evidence</text><text x="56" y="968" fill="#e5f5fc" font-size="28">Relations for further exploration</text><text x="32" y="1094" fill="#aac4d0" font-size="25">↶ Return to the cluster or overview</text></g></svg>